<?xml version="1.0" standalone="no"?>
<!DOCTYPE svg PUBLIC "-//W3C//DTD SVG 20010904//EN"
 "http://www.w3.org/TR/2001/REC-SVG-20010904/DTD/svg10.dtd">
<svg version="1.0" xmlns="http://www.w3.org/2000/svg"
 width="1600.000000pt" height="1600.000000pt" viewBox="0 0 1600.000000 1600.000000"
 preserveAspectRatio="xMidYMid meet">

<g transform="translate(0.000000,1600.000000) scale(0.100000,-0.100000)"
fill="#000000" stroke="none">
<path d="M12256 13370 c-422 -51 -851 -246 -1189 -543 l-68 -60 -122 26 c-803
173 -1725 202 -2727 86 -932 -107 -1903 -325 -2957 -663 -77 -25 -152 -47
-166 -50 -14 -2 -34 -9 -45 -15 -10 -5 -40 -12 -65 -14 -25 -3 -61 -14 -79
-25 -18 -12 -45 -23 -60 -26 -14 -2 -36 -10 -49 -16 -12 -7 -37 -14 -56 -16
-18 -2 -46 -9 -61 -17 -41 -22 -142 -65 -187 -81 -22 -7 -170 -63 -330 -124
-438 -166 -621 -242 -1096 -452 l-97 -42 -140 56 c-368 147 -764 217 -1374
241 l-158 6 0 -143 c0 -155 13 -380 30 -523 68 -568 215 -1021 527 -1622 l86
-165 -14 -156 c-20 -225 -17 -733 5 -932 95 -863 412 -1763 950 -2699 l77
-134 -40 -216 c-98 -518 -115 -687 -115 -1151 -1 -392 4 -480 49 -795 26 -182
79 -472 87 -481 8 -7 364 52 518 87 401 92 733 231 1039 437 113 76 178 123
363 266 l56 43 113 -28 c397 -100 961 -101 1799 -3 1206 141 2554 472 4033
990 269 94 784 287 927 346 52 22 181 75 285 118 388 158 449 184 622 267 73
34 135 63 138 63 2 0 68 32 146 70 l141 70 72 -14 c162 -33 255 -41 506 -41
321 1 538 25 810 90 86 21 315 91 328 101 2 1 -32 67 -76 146 -43 79 -105 193
-137 253 -32 61 -82 157 -113 215 -124 237 -248 449 -363 621 l-77 116 28 84
c89 266 128 829 100 1429 -37 773 -162 1486 -370 2110 -220 661 -485 1129
-852 1506 -102 105 -108 113 -108 152 0 59 -28 365 -41 442 -43 261 -139 517
-278 738 l-48 77 -54 1 c-30 1 -85 -2 -123 -6z m91 -275 c82 -142 154 -339
192 -520 30 -146 57 -373 53 -445 -2 -25 3 -70 9 -100 12 -52 20 -63 153 -195
379 -378 665 -875 890 -1545 201 -601 324 -1231 398 -2035 18 -192 18 -966 0
-1095 -18 -132 -42 -249 -58 -288 -13 -33 -12 -36 29 -105 104 -171 208 -366
328 -613 71 -145 129 -266 129 -269 0 -2 38 -81 84 -174 l84 -169 -56 -16
c-291 -81 -761 -123 -1087 -97 -145 12 -292 36 -403 65 l-53 14 -124 -59 c-68
-32 -127 -59 -130 -59 -3 0 -24 -9 -48 -19 -23 -11 -73 -33 -110 -50 -38 -17
-71 -31 -74 -31 -3 0 -24 -9 -47 -20 -23 -10 -70 -30 -106 -44 -36 -13 -175
-67 -310 -119 -1763 -681 -3376 -1130 -4840 -1346 -113 -17 -234 -35 -270 -41
-154 -25 -729 -75 -980 -85 -74 -3 -175 -8 -225 -11 -109 -6 -399 10 -544 32
-119 17 -285 54 -378 85 l-62 20 -132 -103 c-224 -176 -251 -196 -364 -273
-338 -227 -658 -357 -1105 -449 -82 -17 -120 -20 -120 -8 0 4 -9 59 -19 122
-64 382 -87 732 -70 1095 14 323 51 617 124 990 l33 170 -35 60 c-202 340
-292 502 -423 765 -368 736 -592 1468 -660 2155 -19 196 -24 504 -10 725 l13
209 -83 148 c-46 81 -96 168 -113 192 -16 24 -35 62 -42 86 -7 23 -30 75 -50
116 -45 89 -135 302 -177 419 -135 377 -212 782 -234 1228 l-7 142 59 -5 c32
-2 134 -7 226 -10 200 -6 455 -34 636 -70 222 -43 398 -100 652 -210 111 -48
349 -127 475 -158 100 -25 205 -43 195 -34 -3 2 -79 34 -170 70 -237 93 -383
159 -373 167 14 14 394 176 644 275 134 53 258 103 274 110 17 8 91 35 165 61
74 25 150 55 169 66 19 11 51 21 70 22 20 2 56 12 81 24 73 33 210 82 229 82
10 0 40 9 67 19 107 42 636 197 950 279 995 261 1833 405 2764 474 236 18
1158 18 1375 0 398 -32 749 -82 1045 -148 91 -20 177 -39 192 -41 24 -4 40 7
115 77 198 187 444 343 688 437 119 47 168 61 300 89 165 34 165 34 202 -31z"/>
<path d="M2281 9941 c8 -11 50 -64 94 -118 120 -146 351 -477 399 -571 10 -21
15 -115 19 -417 8 -491 29 -774 83 -1130 139 -912 456 -1648 920 -2135 l52
-55 32 -240 c17 -132 35 -262 39 -290 5 -27 15 -90 21 -140 37 -271 38 -267
39 155 3 1546 -217 2699 -698 3660 -200 399 -397 685 -711 1033 -53 59 -281
267 -293 267 -5 0 -3 -9 4 -19z m619 -910 c220 -402 425 -925 569 -1453 121
-439 238 -1042 316 -1613 14 -104 28 -201 31 -215 5 -25 5 -25 -15 -5 -69 71
-318 469 -421 675 -323 647 -484 1357 -539 2390 -6 107 -13 230 -16 273 -3 42
-3 77 -1 77 3 0 37 -58 76 -129z"/>
</g>
</svg>
